<?xml version="1.0" standalone="no"?>
<!DOCTYPE svg PUBLIC "-//W3C//DTD SVG 20010904//EN"
 "http://www.w3.org/TR/2001/REC-SVG-20010904/DTD/svg10.dtd">
<svg version="1.0" xmlns="http://www.w3.org/2000/svg"
 width="50.000000pt" height="50.000000pt" viewBox="0 0 50.000000 50.000000"
 preserveAspectRatio="xMidYMid meet">

<g transform="translate(0.000000,50.000000) scale(0.100000,-0.100000)"
fill="#000000" stroke="none">
<path d="M40 357 c0 -50 33 -132 65 -164 35 -35 70 -42 106 -22 16 8 25 7 40
-7 25 -22 38 -10 15 15 -13 14 -14 24 -7 44 11 29 4 65 -18 91 -25 30 -112 66
-158 66 -38 0 -43 -3 -43 -23z m130 -19 c57 -30 83 -66 74 -102 l-7 -28 -48
48 c-27 26 -52 45 -56 41 -4 -4 13 -27 36 -51 46 -47 47 -66 2 -66 -44 0 -91
63 -105 143 -7 37 -7 37 26 37 19 0 54 -10 78 -22z"/>
<path d="M415 270 c-76 -17 -118 -61 -101 -106 4 -9 2 -22 -4 -29 -7 -9 2 -11
40 -9 27 1 54 5 61 9 15 10 49 85 49 112 0 28 -8 31 -45 23z m25 -31 c0 -37
-31 -89 -57 -95 -36 -9 -40 3 -10 34 40 41 33 52 -8 12 l-35 -34 0 25 c0 30
26 57 66 69 42 12 44 12 44 -11z"/>
</g>
</svg>
